<?xml version="1.0" standalone="no"?>
<!DOCTYPE svg PUBLIC "-//W3C//DTD SVG 20010904//EN"
 "http://www.w3.org/TR/2001/REC-SVG-20010904/DTD/svg10.dtd">
<svg version="1.0" xmlns="http://www.w3.org/2000/svg"
 width="192.000000pt" height="192.000000pt" viewBox="0 0 192.000000 192.000000"
 preserveAspectRatio="xMidYMid meet">
<metadata>
Created by potrace 1.11, written by Peter Selinger 2001-2013
</metadata>
<g transform="translate(0.000000,192.000000) scale(0.100000,-0.100000)"
fill="#000000" stroke="none">
<path d="M895 1902 c-1 -2 -25 -5 -51 -8 -64 -5 -76 -8 -91 -17 -7 -5 -13 -6
-13 -3 0 7 -103 -24 -117 -36 -7 -6 -13 -8 -13 -4 0 3 -38 -14 -84 -38 -139
-74 -246 -166 -333 -286 -39 -56 -122 -214 -128 -247 -2 -10 -4 -18 -5 -18 -1
0 -3 -7 -5 -15 -2 -8 -6 -25 -9 -38 -21 -84 -29 -151 -27 -242 1 -69 3 -97 16
-170 13 -73 32 -138 48 -157 5 -7 7 -13 4 -13 -11 0 66 -144 107 -200 96 -133
204 -223 353 -296 52 -25 102 -47 111 -49 9 -2 19 -4 22 -6 3 -1 10 -3 15 -4
6 -2 12 -4 15 -5 45 -17 172 -33 255 -32 75 1 200 15 200 22 0 1 13 4 29 6 44
8 147 49 222 89 116 63 219 153 304 265 43 57 132 233 145 285 8 35 13 57 20
88 23 100 22 274 -1 379 -2 10 -6 28 -9 39 -8 40 -28 94 -38 107 -5 6 -7 12
-4 12 11 0 -66 144 -107 200 -96 133 -204 223 -353 296 -52 25 -102 47 -111
49 -9 2 -19 4 -22 6 -3 1 -9 3 -15 4 -5 2 -12 4 -15 5 -6 2 -27 7 -60 14 -61
14 -246 27 -255 18z"/>
</g>
</svg>
